<?xml version="1.0" encoding="UTF-8"?>
<svg version="1.1" xmlns="http://www.w3.org/2000/svg" width="790" height="316">
<path d="M0 0 C3.96 0 7.92 0 12 0 C12.48919922 1.28583984 12.48919922 1.28583984 12.98828125 2.59765625 C15.66096985 9.59079722 18.41178649 16.49269516 21.5 23.3125 C22.64677806 26.13166272 23.54723042 28.77635529 24.375 31.6875 C26.10326195 37.66364791 28.56419411 43.28492147 31 49 C32.91491667 53.57914856 34 56.90292467 34 62 C29.71 62 25.42 62 21 62 C18.57537986 57.38540038 17.03572856 54.1786428 16 49 C9.4 49 2.8 49 -4 49 C-4.66 51.64 -5.32 54.28 -6 57 C-7.20703125 59.98046875 -7.20703125 59.98046875 -9 62 C-12.13671875 62.48828125 -12.13671875 62.48828125 -15.6875 62.3125 C-16.86699219 62.26738281 -18.04648438 62.22226563 -19.26171875 62.17578125 C-20.61716797 62.08876953 -20.61716797 62.08876953 -22 62 C-20.60424178 52.53675926 -17.01443433 43.82117145 -13.28515625 35.0625 C-11.05958259 29.75900532 -9.04704049 24.37427349 -7 19 C-5.70540067 15.65717292 -4.41031991 12.31453763 -3.11328125 8.97265625 C-2.0012092 6.00322877 -0.98374165 3.01411254 0 0 Z M6 23 C4.35 27.29 2.7 31.58 1 36 C4.3 36 7.6 36 11 36 C10.54625 34.5975 10.0925 33.195 9.625 31.75 C9.36976563 30.96109375 9.11453125 30.1721875 8.8515625 29.359375 C7.93391927 26.67283375 7.93391927 26.67283375 6 23 Z " fill="#F2863B" transform="translate(184,121)"/>
<path d="M0 0 C0 6.93 0 13.86 0 21 C1.65 20.34 3.3 19.68 5 19 C10.6424259 18.39194142 15.7283981 18.78037815 21 21 C21 21.66 21 22.32 21 23 C21.99 23 22.98 23 24 23 C24 23.66 24 24.32 24 25 C24.61359375 25.26296875 25.2271875 25.5259375 25.859375 25.796875 C29.54407465 27.86783757 30.85874678 31.1104227 32 35 C32.97104457 43.35098327 32.56227177 49.87145036 28 57 C27.34 57 26.68 57 26 57 C26 57.66 26 58.32 26 59 C18.80290307 63.29057702 13.46312068 64.73913718 5 64 C1.90317289 63.21553128 -1.04133666 62.20061701 -4 61 C-4 60.34 -4 59.68 -4 59 C-4.66 59 -5.32 59 -6 59 C-6 58.34 -6 57.68 -6 57 C-6.66 57 -7.32 57 -8 57 C-8.65357278 55.77493102 -9.29748233 54.54470484 -9.9375 53.3125 C-10.29714844 52.62800781 -10.65679687 51.94351563 -11.02734375 51.23828125 C-13.352775 45.88698766 -13.13245896 40.48752864 -13.09765625 34.76171875 C-13.0962413 33.88095169 -13.09482635 33.00018463 -13.09336853 32.09272766 C-13.08778937 29.29094997 -13.07524071 26.48925338 -13.0625 23.6875 C-13.05748231 21.78320428 -13.05291987 19.87890731 -13.04882812 17.97460938 C-13.03782677 13.31637519 -13.02057649 8.65820133 -13 4 C-11.39850114 3.32694982 -9.79368971 2.66177773 -8.1875 2 C-7.29417969 1.62875 -6.40085937 1.2575 -5.48046875 0.875 C-3 0 -3 0 0 0 Z M2 35 C-0.01213104 38.72244243 -0.16825612 40.96420612 1 45 C1.33 45.99 1.66 46.98 2 48 C2.66 48 3.32 48 4 48 C4 48.66 4 49.32 4 50 C10.19186961 51.32366875 10.19186961 51.32366875 15.9375 49.25 C19.25688774 45.73158458 19.25688774 45.73158458 19.9375 41.125 C18.71541634 37.05138779 17.47846147 35.46391021 14 33 C9.27573564 32.19604624 6.02048854 32.3196743 2 35 Z " fill="#F9B62B" transform="translate(440,119)"/>
<path d="M0 0 C2.82538619 1.69852983 4.87948081 3.70311162 7.0078125 6.20703125 C7.5853125 6.84640625 8.1628125 7.48578125 8.7578125 8.14453125 C12.04769813 13.57284254 11.70145489 21.31685464 10.2578125 27.33203125 C8.09598302 32.30423906 5.19245368 37.6181058 0.17578125 40.12109375 C-7.70391756 42.94970358 -12.83964823 43.30692773 -20.9921875 41.20703125 C-20.9921875 46.48703125 -20.9921875 51.76703125 -20.9921875 57.20703125 C-27.4271875 55.72203125 -27.4271875 55.72203125 -33.9921875 54.20703125 C-34.06676096 48.9417627 -34.12098848 43.6768067 -34.15698242 38.41113281 C-34.17199934 36.62266682 -34.19241908 34.83423722 -34.21850586 33.04589844 C-34.25520365 30.46410094 -34.27198495 27.88279346 -34.28515625 25.30078125 C-34.30064011 24.51086792 -34.31612396 23.72095459 -34.33207703 22.90710449 C-34.33440128 15.10961176 -32.15493653 8.54405922 -26.78515625 2.75 C-18.72091388 -4.18981642 -9.27462622 -4.57268157 0 0 Z M-18.4921875 13.08203125 C-21.00374329 16.64006863 -21.50779891 18.82433424 -20.9921875 23.20703125 C-18.6586955 26.0411428 -18.6586955 26.0411428 -15.9921875 28.20703125 C-15.6621875 28.53703125 -15.3321875 28.86703125 -14.9921875 29.20703125 C-11.66076472 29.70828408 -11.66076472 29.70828408 -7.9921875 29.20703125 C-5.0949934 26.89429683 -5.0949934 26.89429683 -2.9921875 24.20703125 C-2.6621875 23.87703125 -2.3321875 23.54703125 -1.9921875 23.20703125 C-1.73200047 19.30422575 -1.76336654 16.4916095 -3.9921875 13.20703125 C-8.59273803 10.13999756 -13.94877925 9.67447506 -18.4921875 13.08203125 Z " fill="#F69734" transform="translate(291.9921875,140.79296875)"/>
<path d="M0 0 C0 -0.66 0 -1.32 0 -2 C4.29 -2 8.58 -2 13 -2 C13.02464455 4.24796254 13.04283343 10.49589703 13.05493164 16.74389648 C13.05997298 18.87118014 13.06680591 20.99846031 13.07543945 23.12573242 C13.08751379 26.17627826 13.09323014 29.22677845 13.09765625 32.27734375 C13.10281754 33.23462875 13.10797882 34.19191376 13.11329651 35.1782074 C13.11337204 36.05904495 13.11344757 36.93988251 13.11352539 37.84741211 C13.115746 38.62684677 13.11796661 39.40628143 13.12025452 40.20933533 C13 42 13 42 12 43 C8.71679496 43.06058971 5.44853671 43.02067401 2.16601562 42.9609375 C-2.03110024 42.91443206 -5.84961607 43.29943874 -10 44 C-16.89627354 43.60897418 -22.11313507 40.77630237 -27 36 C-31.48384844 30.81636018 -32.10821759 24.67997681 -32 18 C-31.3952954 14.04392053 -29.95383747 10.48899548 -28 7 C-27.34 7 -26.68 7 -26 7 C-25.7525 6.401875 -25.505 5.80375 -25.25 5.1875 C-23.28815637 1.75427364 -20.931929 0.42158693 -17.375 -1.1875 C-11.41436731 -2.62246713 -5.43621403 -3.15651138 0 0 Z M-16.5 13.625 C-18.34433156 16.54519164 -18.85914846 18.54913726 -19 22 C-18.22849576 25.31746825 -17.4399112 26.63550215 -14.8125 28.8125 C-11.25115378 30.31617952 -8.83165326 30.48766496 -5 30 C-2.63502561 28.13291495 -1.33969285 26.67938569 0 24 C0.48153012 19.7464839 0.44716755 17.6779637 -1.9375 14.0625 C-5.54109294 11.63559047 -7.65124908 11.31983563 -11.91015625 11.58203125 C-14.18948256 11.90387775 -14.18948256 11.90387775 -16.5 13.625 Z " fill="#F8AB2B" transform="translate(400,140)"/>
<path d="M0 0 C0 6.93 0 13.86 0 21 C0.99 20.67 1.98 20.34 3 20 C7.74598472 19.6978212 12.37675552 19.80690465 17 21 C17 21.66 17 22.32 17 23 C17.7425 23.226875 18.485 23.45375 19.25 23.6875 C23.2544153 25.59869821 25.16717682 28.30499247 27.10107422 32.2409668 C28.18560745 35.56967675 28.22614316 38.33275143 28.1953125 41.83203125 C28.18886719 43.12431641 28.18242187 44.41660156 28.17578125 45.74804688 C28.15907327 47.1028673 28.14214342 48.45768501 28.125 49.8125 C28.11496003 51.18684251 28.10583596 52.56119203 28.09765625 53.93554688 C28.07411314 57.2904399 28.03824296 60.64524234 28 64 C23.71 64 19.42 64 15 64 C14.94392578 61.11121094 14.94392578 61.11121094 14.88671875 58.1640625 C14.82107962 55.65102151 14.75463159 53.13800156 14.6875 50.625 C14.66494141 49.35398438 14.64238281 48.08296875 14.61914062 46.7734375 C14.5659668 44.95585937 14.5659668 44.95585937 14.51171875 43.1015625 C14.48553467 41.98088379 14.45935059 40.86020508 14.43237305 39.70556641 C14.28968994 38.81272949 14.14700684 37.91989258 14 37 C13.01 36.34 12.02 35.68 11 35 C11 34.34 11 33.68 11 33 C8.03 33.66 5.06 34.32 2 35 C1.19070518 38.60870608 0.82185917 42.04461938 0.68359375 45.73828125 C0.64169922 46.80498047 0.59980469 47.87167969 0.55664062 48.97070312 C0.51732422 50.07349609 0.47800781 51.17628906 0.4375 52.3125 C0.39431641 53.43462891 0.35113281 54.55675781 0.30664062 55.71289062 C0.20085289 58.47512585 0.09995017 61.23754739 0 64 C-3.96 64 -7.92 64 -12 64 C-12 44.2 -12 24.4 -12 4 C-1 0 -1 0 0 0 Z " fill="#F79F2B" transform="translate(328,119)"/>
<path d="M0 0 C6.26667955 4.27273606 11.56570984 8.30799479 13.75 15.875 C14.78532072 24.03991571 13.52421801 29.76150434 8.9375 36.5625 C4.62770176 41.11857242 0.43701083 43.57729105 -5.765625 44.078125 C-13.11422436 44.20410099 -18.87439683 43.65987261 -24.75 38.8125 C-26.25 36.875 -26.25 36.875 -26.25 34.875 C-26.91 34.875 -27.57 34.875 -28.25 34.875 C-31.54091231 29.33170098 -31.76230755 21.93788349 -30.96875 15.64453125 C-29.09530724 8.57228483 -25.42665939 4.46754679 -19.25 0.875 C-13.08242877 -2.03213669 -6.43500314 -2.22750109 0 0 Z M-15.75 14.75 C-18.2676921 18.31673048 -18.68025391 20.48641008 -18.25 24.875 C-16.45006226 27.57490662 -15.166227 29.4168865 -12.25 30.875 C-8.22622527 31.25460139 -5.92835109 31.25841583 -2.375 29.25 C0.2233089 26.3460077 0.67095176 24.74836391 0.75 20.875 C-0.22371691 17.38584773 -1.44386457 15.15861366 -4.25 12.875 C-8.58135387 11.98958512 -12.18560077 12.07670058 -15.75 14.75 Z " fill="#FBC02A" transform="translate(514.25,139.125)"/>
<path d="M0 0 C0 4.29 0 8.58 0 13 C3.96 13 7.92 13 12 13 C12 17.29 12 21.58 12 26 C8.04 26 4.08 26 0 26 C0.66958004 34.60404918 0.66958004 34.60404918 4.3125 42.1875 C7.24249377 44.30119651 7.24249377 44.30119651 12 46 C12 50.29 12 54.58 12 59 C7.97007218 58.44687265 3.97977076 57.8441938 0 57 C0 56.34 0 55.68 0 55 C-0.59683594 54.89945313 -1.19367187 54.79890625 -1.80859375 54.6953125 C-4.40437732 53.8716949 -5.32329664 52.94349253 -7.0625 50.875 C-7.54847656 50.31554687 -8.03445313 49.75609375 -8.53515625 49.1796875 C-12.49962477 43.28055834 -13.43610485 38.38683524 -13.29296875 31.44140625 C-13.28872391 30.65225327 -13.28447906 29.86310028 -13.28010559 29.05003357 C-13.26344452 26.55382739 -13.22581779 24.05845808 -13.1875 21.5625 C-13.17243683 19.86003778 -13.15875129 18.15756279 -13.14648438 16.45507812 C-13.1135825 12.3030678 -13.06188951 8.1516753 -13 4 C-11.2097939 3.32942113 -9.41778511 2.6636531 -7.625 2 C-6.62726562 1.62875 -5.62953125 1.2575 -4.6015625 0.875 C-2 0 -2 0 0 0 Z " fill="#FBC92A" transform="translate(555,125)"/>
<path d="M0 0 C0.66 0.33 1.32 0.66 2 1 C2.02312737 9.06652174 2.04091709 17.13302972 2.05181217 25.19957638 C2.05704014 28.94483037 2.06413622 32.69006176 2.07543945 36.43530273 C2.08627141 40.04681687 2.09227749 43.65830921 2.09487724 47.26983833 C2.09673094 48.65060329 2.10035049 50.031367 2.10573006 51.41212273 C2.11294447 53.33975952 2.11340809 55.26741807 2.11352539 57.19506836 C2.115746 58.29427109 2.11796661 59.39347382 2.12025452 60.52598572 C2 63 2 63 1 64 C-3.29 64 -7.58 64 -12 64 C-12 44.53 -12 25.06 -12 5 C-8.04 3.35 -4.08 1.7 0 0 Z " fill="#F38C33" transform="translate(241,119)"/>
<path d="M0 0 C3.96 0 7.92 0 12 0 C12.34933594 0.92683594 12.69867188 1.85367188 13.05859375 2.80859375 C13.74115234 4.60490234 13.74115234 4.60490234 14.4375 6.4375 C15.11619141 8.22994141 15.11619141 8.22994141 15.80859375 10.05859375 C16.7144826 12.84445723 16.7144826 12.84445723 18 14 C18.28868056 17.45958443 18.44901497 20.91951431 18.62109375 24.38671875 C18.98652436 27.87149514 19.88400777 30.70033466 21 34 C20.67 34.66 20.34 35.32 20 36 C19.34 36 18.68 36 18 36 C17.505 33.525 17.505 33.525 17 31 C16.67 31.66 16.34 32.32 16 33 C15.34 33 14.68 33 14 33 C14 34.98 14 36.96 14 39 C13.34 39 12.68 39 12 39 C12 39.66 12 40.32 12 41 C14.31 40.34 16.62 39.68 19 39 C19 43 19 43 17.75 44.8125 C16 46 16 46 13.8125 45.6875 C13.214375 45.460625 12.61625 45.23375 12 45 C12.33 44.34 12.66 43.68 13 43 C11.68528432 43.28151087 10.37324233 43.57553339 9.0625 43.875 C7.96615234 44.11863281 7.96615234 44.11863281 6.84765625 44.3671875 C4.79299706 44.82961523 4.79299706 44.82961523 4 47 C0.04 46.505 0.04 46.505 -4 46 C-4.66 44.35 -5.32 42.7 -6 41 C-5.360625 40.71125 -4.72125 40.4225 -4.0625 40.125 C-1.84793921 39.17176549 -1.84793921 39.17176549 -1 37 C3.29 37 7.58 37 12 37 C11.70403995 31.32756807 11.70403995 31.32756807 9.4375 29.625 C6.9785427 26.84530914 7.82368842 23.5850022 8 20 C7.01 20.33 6.02 20.66 5 21 C5 20.34 5 19.68 5 19 C0.545 20.485 0.545 20.485 -4 22 C-4.33 21.34 -4.66 20.68 -5 20 C-4.67 19.34 -4.34 18.68 -4 18 C-3.84552858 16.46100692 -3.72534926 14.91846725 -3.625 13.375 C-3.18790725 8.44516706 -1.93398616 4.54066316 0 0 Z " fill="#F38335" transform="translate(184,121)"/>
<path d="M0 0 C4.11743801 0.0761207 7.99724015 0.19447427 12.01171875 1.23046875 C12.01171875 1.89046875 12.01171875 2.55046875 12.01171875 3.23046875 C12.75421875 3.45734375 13.49671875 3.68421875 14.26171875 3.91796875 C18.26613405 5.82916696 20.17889557 8.53546122 22.11279297 12.47143555 C23.1973262 15.8001455 23.23786191 18.56322018 23.20703125 22.0625 C23.20058594 23.35478516 23.19414062 24.64707031 23.1875 25.97851562 C23.17079202 27.33333605 23.15386217 28.68815376 23.13671875 30.04296875 C23.12667878 31.41731126 23.11755471 32.79166078 23.109375 34.16601562 C23.08583189 37.52090865 23.04996171 40.87571109 23.01171875 44.23046875 C18.72171875 44.23046875 14.43171875 44.23046875 10.01171875 44.23046875 C9.97433594 42.30460937 9.93695313 40.37875 9.8984375 38.39453125 C9.83279837 35.88149026 9.76635034 33.36847031 9.69921875 30.85546875 C9.67666016 29.58445313 9.65410156 28.3134375 9.63085938 27.00390625 C9.59541016 25.7921875 9.55996094 24.58046875 9.5234375 23.33203125 C9.49725342 22.21135254 9.47106934 21.09067383 9.4440918 19.93603516 C9.30140869 19.04319824 9.15872559 18.15036133 9.01171875 17.23046875 C8.02171875 16.57046875 7.03171875 15.91046875 6.01171875 15.23046875 C6.01171875 14.57046875 6.01171875 13.91046875 6.01171875 13.23046875 C3.04171875 13.89046875 0.07171875 14.55046875 -2.98828125 15.23046875 C-2.65828125 13.91046875 -2.32828125 12.59046875 -1.98828125 11.23046875 C1.90425917 11.1556122 5.25279732 11.29073839 9.01171875 12.23046875 C10.00171875 11.90046875 10.99171875 11.57046875 12.01171875 11.23046875 C13.00171875 11.56046875 13.99171875 11.89046875 15.01171875 12.23046875 C16.00171875 11.90046875 16.99171875 11.57046875 18.01171875 11.23046875 C16.42813233 8.06329592 15.55908176 6.49778557 12.32421875 4.91796875 C11.56109375 4.69109375 10.79796875 4.46421875 10.01171875 4.23046875 C10.01171875 3.57046875 10.01171875 2.91046875 10.01171875 2.23046875 C5.39171875 2.23046875 0.77171875 2.23046875 -3.98828125 2.23046875 C-1.98828125 0.23046875 -1.98828125 0.23046875 0 0 Z " fill="#F6A332" transform="translate(332.98828125,138.76953125)"/>
<path d="M0 0 C0.33 0.66 0.66 1.32 1 2 C0.34 2 -0.32 2 -1 2 C-1 3.32 -1 4.64 -1 6 C-1.66 6 -2.32 6 -3 6 C-3 7.32 -3 8.64 -3 10 C-3.66 10 -4.32 10 -5 10 C-5 10.99 -5 11.98 -5 13 C-3.35 12.01 -1.7 11.02 0 10 C0.33 10.99 0.66 11.98 1 13 C1.4125 12.505 1.825 12.01 2.25 11.5 C4 10 4 10 8 10 C7.80470703 10.99580078 7.80470703 10.99580078 7.60546875 12.01171875 C6.63042714 17.83335522 6.63042714 17.83335522 9 23.0625 C12.43300422 25.27964856 14.95137847 25.76184579 19 26 C19 26.33 19 26.66 19 27 C18.09507812 27.07347656 18.09507812 27.07347656 17.171875 27.1484375 C16.37265625 27.22320312 15.5734375 27.29796875 14.75 27.375 C13.96109375 27.44460937 13.1721875 27.51421875 12.359375 27.5859375 C9.914123 28.01507113 8.15163097 28.78600638 6 30 C7.08784968 33.24983135 7.08784968 33.24983135 9 36 C11.18292774 36.23481693 13.37203174 36.41363323 15.5625 36.5625 C16.76003906 36.64628906 17.95757812 36.73007813 19.19140625 36.81640625 C20.58166016 36.90728516 20.58166016 36.90728516 22 37 C22 36.34 22 35.68 22 35 C22.99 35 23.98 35 25 35 C25.495 34.01 25.495 34.01 26 33 C26.99 33.495 26.99 33.495 28 34 C28 33.01 28 32.02 28 31 C28.99 31 29.98 31 31 31 C31.185625 30.0409375 31.185625 30.0409375 31.375 29.0625 C31.58125 28.381875 31.7875 27.70125 32 27 C32.66 26.67 33.32 26.34 34 26 C34.33 19.73 34.66 13.46 35 7 C34.01 6.67 33.02 6.34 32 6 C32.33 4.68 32.66 3.36 33 2 C37.29980995 9.48999152 39.70689782 15.2351623 37.46875 24.10546875 C34.8571019 30.53523282 30.92927609 34.54125561 25 38 C17.25564288 40.47298799 9.17972209 39.52688103 2 36 C-0.5 33.9375 -0.5 33.9375 -2 32 C-2 31.34 -2 30.68 -2 30 C-2.66 30 -3.32 30 -4 30 C-7.29091231 24.45670098 -7.51230755 17.06288349 -6.71875 10.76953125 C-5.76599815 7.17289302 -4.13718868 4.02768396 -2 1 C-1.34 0.67 -0.68 0.34 0 0 Z " fill="#FBBF29" transform="translate(490,144)"/>
<path d="M0 0 C3.08045461 2.81258899 3.91064347 4.84715424 4.23828125 9.07421875 C4.39274596 16.59421098 4.08462397 21.61777505 0 28 C-0.66 28 -1.32 28 -2 28 C-2 28.66 -2 29.32 -2 30 C-9.19709693 34.29057702 -14.53687932 35.73913718 -23 35 C-26.09682711 34.21553128 -29.04133666 33.20061701 -32 32 C-28.59598052 30.86267574 -26.22543336 31.16010043 -22.75 31.9375 C-21.85796875 32.13214844 -20.9659375 32.32679688 -20.046875 32.52734375 C-19.03367187 32.76130859 -19.03367187 32.76130859 -18 33 C-18.495 31.515 -18.495 31.515 -19 30 C-18.5625 27.8125 -18.5625 27.8125 -18 26 C-18.66 26 -19.32 26 -20 26 C-20 25.34 -20 24.68 -20 24 C-21.32 23.67 -22.64 23.34 -24 23 C-24 22.34 -24 21.68 -24 21 C-23.40832031 21.05800781 -22.81664062 21.11601562 -22.20703125 21.17578125 C-17.78171423 21.42845025 -15.68705195 21.50097538 -12 18.8125 C-9.96375366 15.94902858 -9.08715103 14.48604111 -9 11 C-9.63215742 8.25141979 -9.63215742 8.25141979 -11 6 C-14.01490557 4.99503148 -16.04181692 4.89664697 -19.1875 4.9375 C-20.08855469 4.94652344 -20.98960937 4.95554688 -21.91796875 4.96484375 C-22.94857422 4.98224609 -22.94857422 4.98224609 -24 5 C-23.67 4.01 -23.34 3.02 -23 2 C-12.96992481 1.65413534 -12.96992481 1.65413534 -9 4 C-7.2843489 7.21817784 -6.08986836 10.52524323 -5 14 C-1.85716486 12.06858332 -1.85716486 12.06858332 -0.390625 8.80859375 C-0.34421875 8.02613281 -0.2978125 7.24367187 -0.25 6.4375 C-0.19328125 5.65246094 -0.1365625 4.86742187 -0.078125 4.05859375 C-0.02681032 2.70645191 0 1.3531152 0 0 Z " fill="#F8B734" transform="translate(468,148)"/>
<path d="M0 0 C0.66 0 1.32 0 2 0 C2 2 2 2 0.6875 3.375 C0.130625 3.91125 -0.42625 4.4475 -1 5 C-4.41060989 8.52998123 -4.53235241 12.06011001 -4.6875 16.75 C-4.72166016 17.44738281 -4.75582031 18.14476562 -4.79101562 18.86328125 C-4.87308295 20.57497108 -4.93822919 22.2874576 -5 24 C-4.32517578 23.29423828 -4.32517578 23.29423828 -3.63671875 22.57421875 C-1.87983185 20.88442061 -0.21235068 19.99174341 2 19 C2 17.68 2 16.36 2 15 C2.99 15 3.98 15 5 15 C5 13.02 5 11.04 5 9 C8.50711619 7.83096127 11.36782386 7.83160381 15.0625 7.8125 C16.93615234 7.79123047 16.93615234 7.79123047 18.84765625 7.76953125 C22 8 22 8 24 10 C23.625 12.125 23.625 12.125 23 14 C22.67 13.01 22.34 12.02 22 11 C19.23952457 10.07984152 17.36637731 9.80732755 14.5 9.75 C13.7265625 9.72421875 12.953125 9.6984375 12.15625 9.671875 C9.45770602 10.082523 8.63716621 10.8540529 7 13 C6.06711445 16.30097965 5.85332842 18.4133137 6.6875 21.75 C8.26421169 24.45293433 9.01098965 25.1113753 12 26 C15.54171978 26.16669318 15.54171978 26.16669318 19 26 C19.99 26 20.98 26 22 26 C21.67 26.66 21.34 27.32 21 28 C18.87506859 28.02693575 16.75004088 28.04636628 14.625 28.0625 C13.44164062 28.07410156 12.25828125 28.08570313 11.0390625 28.09765625 C8 28 8 28 6 27 C5.855625 27.61875 5.71125 28.2375 5.5625 28.875 C5 31 5 31 4 33 C5.32 33.66 6.64 34.32 8 35 C8 35.99 8 36.98 8 38 C8.59949463 37.99476318 9.19898926 37.98952637 9.81665039 37.98413086 C12.56525602 37.96318557 15.31384478 37.95028444 18.0625 37.9375 C19.00544922 37.92912109 19.94839844 37.92074219 20.91992188 37.91210938 C26.0630768 37.89418897 30.93258427 38.10740389 36 39 C36 39.33 36 39.66 36 40 C34.91460937 39.98839844 33.82921875 39.97679687 32.7109375 39.96484375 C31.26562673 39.95545862 29.82031409 39.94635919 28.375 39.9375 C27.66214844 39.92912109 26.94929688 39.92074219 26.21484375 39.91210938 C22.01036591 39.89282278 18.15586337 40.30342063 14 41 C7.10372646 40.60897418 1.88686493 37.77630237 -3 33 C-7.48384844 27.81636018 -8.10821759 21.67997681 -8 15 C-7.3952954 11.04392053 -5.95383747 7.48899548 -4 4 C-3.34 4 -2.68 4 -2 4 C-1.34 2.68 -0.68 1.36 0 0 Z " fill="#F7AE34" transform="translate(376,143)"/>
<path d="M0 0 C0.70769531 -0.01224609 1.41539062 -0.02449219 2.14453125 -0.03710938 C6.22174194 -0.04849823 9.53684461 0.16358826 13.125 2.1875 C13.9375 4.8125 13.9375 4.8125 14.125 7.1875 C15.115 7.5175 16.105 7.8475 17.125 8.1875 C17.125 9.5075 17.125 10.8275 17.125 12.1875 C15.805 11.8575 14.485 11.5275 13.125 11.1875 C12.795 12.5075 12.465 13.8275 12.125 15.1875 C11.465 15.1875 10.805 15.1875 10.125 15.1875 C9.795 14.5275 9.465 13.8675 9.125 13.1875 C4.57818231 11.20555383 0.18466666 10.8274798 -4.703125 10.53125 C-6.875 10.1875 -6.875 10.1875 -8.875 8.1875 C-10.8995738 10.12004772 -12.29605792 11.81908688 -13.875 14.1875 C-15.1286419 10.67569545 -14.65456527 8.85285141 -13.125 5.5 C-12.77953125 4.71238281 -12.4340625 3.92476562 -12.078125 3.11328125 C-9.50615119 -1.00354696 -4.34899746 0.00391802 0 0 Z " fill="#F7952D" transform="translate(280.875,140.8125)"/>
<path d="M0 0 C2.31 0.66 4.62 1.32 7 2 C7.66 5.63 8.32 9.26 9 13 C8.01 13 7.02 13 6 13 C5.67 11.35 5.34 9.7 5 8 C4.67 8.66 4.34 9.32 4 10 C3.34 10 2.68 10 2 10 C2 11.98 2 13.96 2 16 C1.34 16 0.68 16 0 16 C0 16.66 0 17.32 0 18 C2.31 17.34 4.62 16.68 7 16 C7 20 7 20 5.75 21.8125 C4 23 4 23 1.8125 22.6875 C1.214375 22.460625 0.61625 22.23375 0 22 C0.33 21.34 0.66 20.68 1 20 C-0.31471568 20.28151087 -1.62675767 20.57553339 -2.9375 20.875 C-4.03384766 21.11863281 -4.03384766 21.11863281 -5.15234375 21.3671875 C-7.20700294 21.82961523 -7.20700294 21.82961523 -8 24 C-10.64 23.67 -13.28 23.34 -16 23 C-16.66 21.35 -17.32 19.7 -18 18 C-17.360625 17.71125 -16.72125 17.4225 -16.0625 17.125 C-13.84793921 16.17176549 -13.84793921 16.17176549 -13 14 C-8.71 14 -4.42 14 0 14 C-0.185625 12.7625 -0.37125 11.525 -0.5625 10.25 C-0.94966218 7.20647507 -1.01735128 4.9390148 0 2 C0 1.34 0 0.68 0 0 Z " fill="#F58130" transform="translate(196,144)"/>
<path d="M0 0 C0.66 0.33 1.32 0.66 2 1 C2.02312737 9.06652174 2.04091709 17.13302972 2.05181217 25.19957638 C2.05704014 28.94483037 2.06413622 32.69006176 2.07543945 36.43530273 C2.08627141 40.04681687 2.09227749 43.65830921 2.09487724 47.26983833 C2.09673094 48.65060329 2.10035049 50.031367 2.10573006 51.41212273 C2.11294447 53.33975952 2.11340809 55.26741807 2.11352539 57.19506836 C2.115746 58.29427109 2.11796661 59.39347382 2.12025452 60.52598572 C2 63 2 63 1 64 C-3.29 64 -7.58 64 -12 64 C-12 45.52 -12 27.04 -12 8 C-11.67 8 -11.34 8 -11 8 C-11 26.15 -11 44.3 -11 63 C-7.37 63 -3.74 63 0 63 C-0.33 43.2 -0.66 23.4 -1 3 C-2.65 3 -4.3 3 -6 3 C-4 2 -2 1 0 0 Z " fill="#F7CEA9" transform="translate(241,119)"/>
<path d="M0 0 C3.96 1.98 7.92 3.96 12 6 C12 8.64 12 11.28 12 14 C5.9453125 14.1953125 5.9453125 14.1953125 4 14 C3.34 13.34 2.68 12.68 2 12 C-0.06874034 11.3574765 -0.06874034 11.3574765 -2 11 C-2 10.01 -2 9.02 -2 8 C-2.66 8 -3.32 8 -4 8 C-3.6875 5.125 -3.6875 5.125 -3 2 C-2.01 1.34 -1.02 0.68 0 0 Z " fill="#FCC922" transform="translate(553,167)"/>
<path d="M0 0 C1.33333333 0.66666667 2.66666667 1.33333333 4 2 C5.546875 2.7115625 5.546875 2.7115625 7.125 3.4375 C10 5 10 5 12 8 C12.27307887 11.458999 11.99165719 14.67206571 11 18 C7.9375 20.125 7.9375 20.125 5 21 C4.49384702 19.73160474 3.99530901 18.46016898 3.5 17.1875 C3.2215625 16.47980469 2.943125 15.77210938 2.65625 15.04296875 C2 13 2 13 2 10 C1.34 10 0.68 10 0 10 C0.20625 9.38125 0.4125 8.7625 0.625 8.125 C0.74875 7.42375 0.8725 6.7225 1 6 C0.34 5.34 -0.32 4.68 -1 4 C-0.625 1.875 -0.625 1.875 0 0 Z " fill="#FBB428" transform="translate(457,142)"/>
<path d="M0 0 C3.84827016 3.46344315 5.71082848 6.45378845 6.30078125 11.6484375 C6.3368262 20.03489688 4.94442234 25.71589638 -1 32 C-7.84326019 37.13244514 -13.60310188 37.66016992 -22 37 C-26.44813519 35.9613855 -29.37957704 34.93063444 -32 31 C-25.25 31.75 -25.25 31.75 -23 34 C-19.87803664 34.46486718 -19.87803664 34.46486718 -16.375 34.625 C-15.18648438 34.69976562 -13.99796875 34.77453125 -12.7734375 34.8515625 C-11.85820312 34.90054688 -10.94296875 34.94953125 -10 35 C-10 34.34 -10 33.68 -10 33 C-9.01 33 -8.02 33 -7 33 C-6.67 32.34 -6.34 31.68 -6 31 C-5.34 31.33 -4.68 31.66 -4 32 C-4 31.01 -4 30.02 -4 29 C-3.01 29 -2.02 29 -1 29 C-0.87625 28.360625 -0.7525 27.72125 -0.625 27.0625 C-0.315625 26.0415625 -0.315625 26.0415625 0 25 C0.66 24.67 1.32 24.34 2 24 C2.33 17.73 2.66 11.46 3 5 C2.01 4.67 1.02 4.34 0 4 C0 2.68 0 1.36 0 0 Z " fill="#F5CA58" transform="translate(522,146)"/>
<path d="M0 0 C0 0.99 0 1.98 0 3 C-1.65 3.33 -3.3 3.66 -5 4 C-5.09933715 9.83491118 -5.17168936 15.66932337 -5.21972656 21.50488281 C-5.23976497 23.48739199 -5.26700353 25.46984263 -5.30175781 27.45214844 C-5.35061954 30.31199641 -5.37304673 33.17105881 -5.390625 36.03125 C-5.41127014 36.90865845 -5.43191528 37.78606689 -5.45318604 38.69006348 C-5.45512135 44.07255245 -4.58760677 47.73914876 -1.86126709 52.40515137 C-1 54 -1 54 -1 56 C-1.66 56 -2.32 56 -3 56 C-3.65357278 54.77493102 -4.29748233 53.54470484 -4.9375 52.3125 C-5.29714844 51.62800781 -5.65679687 50.94351563 -6.02734375 50.23828125 C-8.352775 44.88698766 -8.13245896 39.48752864 -8.09765625 33.76171875 C-8.0962413 32.88095169 -8.09482635 32.00018463 -8.09336853 31.09272766 C-8.08778937 28.29094997 -8.07524071 25.48925338 -8.0625 22.6875 C-8.05748231 20.78320428 -8.05291987 18.87890731 -8.04882812 16.97460938 C-8.03782677 12.31637519 -8.02057649 7.65820133 -8 3 C-5.36 2.01 -2.72 1.02 0 0 Z " fill="#F5C56A" transform="translate(435,120)"/>
<path d="M0 0 C1.32 0 2.64 0 4 0 C4 8.91 4 17.82 4 27 C7.3 27 10.6 27 14 27 C14 18.09 14 9.18 14 0 C14.33 0 14.66 0 15 0 C15 9.57 15 19.14 15 29 C10.71 29 6.42 29 2 29 C1.93941406 27.07414062 1.87882812 25.14828125 1.81640625 23.1640625 C1.73201349 20.65103351 1.64736486 18.1380131 1.5625 15.625 C1.52318359 14.35398438 1.48386719 13.08296875 1.44335938 11.7734375 C1.40146484 10.56171875 1.35957031 9.35 1.31640625 8.1015625 C1.27974854 6.98088379 1.24309082 5.86020508 1.20532227 4.70556641 C1.17403987 2.03287229 1.17403987 2.03287229 0 0 Z " fill="#ECAE5B" transform="translate(341,154)"/>
<path d="M0 0 C0 -0.66 0 -1.32 0 -2 C4.29 -2 8.58 -2 13 -2 C13 12.52 13 27.04 13 42 C12.67 42 12.34 42 12 42 C12 27.81 12 13.62 12 -1 C8.37 -1 4.74 -1 1 -1 C1 -0.34 1 0.32 1 1 C0.26136719 0.97679687 -0.47726562 0.95359375 -1.23828125 0.9296875 C-8.40843864 0.80213705 -14.99996389 1.45668495 -22 3 C-17.54181101 -3.68728348 -6.60145389 -3.83310226 0 0 Z " fill="#F3C779" transform="translate(400,140)"/>
<path d="M0 0 C-0.99 0.66 -1.98 1.32 -3 2 C-3 1.34 -3 0.68 -3 0 C-9.93 0 -16.86 0 -24 0 C-24.33 1.32 -24.66 2.64 -25 4 C-25.33 4.99 -25.66 5.98 -26 7 C-27.65 6.67 -29.3 6.34 -31 6 C-31 6.99 -31 7.98 -31 9 C-31.66 9 -32.32 9 -33 9 C-33 10.98 -33 12.96 -33 15 C-33.66 15 -34.32 15 -35 15 C-34.87764148 9.12679088 -33.12470042 6.0456035 -29.0859375 1.80078125 C-19.86471949 -6.15985827 -10.23314469 -5.41897024 0 0 Z " fill="#EEA75A" transform="translate(294,142)"/>
<path d="M0 0 C0.33 0 0.66 0 1 0 C1.08636719 0.88042969 1.17273438 1.76085937 1.26171875 2.66796875 C2.03798702 9.8798772 2.03798702 9.8798772 5.3125 16.1875 C8.24249377 18.30119651 8.24249377 18.30119651 13 20 C13 24.29 13 28.58 13 33 C8.97007218 32.44687265 4.97977076 31.8441938 1 31 C1 30.34 1 29.68 1 29 C-0.32 28.67 -1.64 28.34 -3 28 C-1.125 27.375 -1.125 27.375 1 27 C1.66 27.66 2.32 28.32 3 29 C5.65537372 29.56520003 8.29144713 29.73788198 11 30 C11.1030825 25.85616411 11.1030825 25.85616411 10 22 C7.7259633 20.60764356 5.5846116 19.8375354 3.03125 19.08203125 C1 18 1 18 0.22265625 15.8125 C-0.03248519 12.5896608 -0.09515764 9.42060622 -0.0625 6.1875 C-0.05347656 5.02605469 -0.04445313 3.86460937 -0.03515625 2.66796875 C-0.02355469 1.78753906 -0.01195312 0.90710938 0 0 Z " fill="#F3D569" transform="translate(554,151)"/>
<path d="M0 0 C0.33 0.66 0.66 1.32 1 2 C0.34 2 -0.32 2 -1 2 C-1 2.66 -1 3.32 -1 4 C-2.134375 4.28875 -3.26875 4.5775 -4.4375 4.875 C-5.613125 5.24625 -6.78875 5.6175 -8 6 C-9.27469407 8.54938815 -9.12016184 10.33040998 -9.11352539 13.18408203 C-9.11344986 14.26505157 -9.11337433 15.34602112 -9.11329651 16.45974731 C-9.10813522 17.63060883 -9.10297394 18.80147034 -9.09765625 20.0078125 C-9.09553383 21.8014473 -9.09553383 21.8014473 -9.09336853 23.63131714 C-9.08775663 27.46256987 -9.07520208 31.29376484 -9.0625 35.125 C-9.05748653 37.71744707 -9.05292336 40.30989506 -9.04882812 42.90234375 C-9.03778333 49.26825153 -9.02051068 55.63411596 -9 62 C-5.7 62.33 -2.4 62.66 1 63 C1 63.33 1 63.66 1 64 C-2.96 64 -6.92 64 -11 64 C-11 44.2 -11 24.4 -11 4 C-7.37 2.68 -3.74 1.36 0 0 Z " fill="#ECB159" transform="translate(327,119)"/>
<path d="M0 0 C3.96 0 7.92 0 12 0 C15.22265625 6.8359375 15.22265625 6.8359375 16 9 C15.67 9.66 15.34 10.32 15 11 C11 5.25 11 5.25 11 3 C10.34 3 9.68 3 9 3 C9 3.66 9 4.32 9 5 C7.68 5 6.36 5 5 5 C5 4.01 5 3.02 5 2 C3.68 2 2.36 2 1 2 C1 3.65 1 5.3 1 7 C0.34 7 -0.32 7 -1 7 C-1 7.99 -1 8.98 -1 10 C-1.66 10 -2.32 10 -3 10 C-2.01 6.7 -1.02 3.4 0 0 Z " fill="#EBA26C" transform="translate(184,121)"/>
<path d="M0 0 C0.66 0.33 1.32 0.66 2 1 C2 1.66 2 2.32 2 3 C5.3 3 8.6 3 12 3 C12 3.33 12 3.66 12 4 C10.01432292 4.22786458 8.02864583 4.45572917 6.04296875 4.68359375 C3.80603607 4.97170735 3.80603607 4.97170735 1 6 C0.77668801 7.58129029 0.57195356 9.16521089 0.375 10.75 C0.25898438 11.63171875 0.14296875 12.5134375 0.0234375 13.421875 C-0.00207817 16.22859878 0.55156156 17.63384866 2 20 C1.01 20 0.02 20 -1 20 C-1 19.01 -1 18.02 -1 17 C-1.66 17 -2.32 17 -3 17 C-3.23809524 4.85714286 -3.23809524 4.85714286 0 0 Z " fill="#F4A650" transform="translate(272,148)"/>
<path d="M0 0 C5.10467806 -0.17602338 9.28493603 -0.24526856 14 2 C15.83218134 4.86667829 16.27310444 7.12675137 16.25 10.5 C16.25515625 11.2528125 16.2603125 12.005625 16.265625 12.78125 C15.97250404 15.2296721 15.21816769 16.87304054 14 19 C12.68 18.67 11.36 18.34 10 18 C10.680625 17.29875 11.36125 16.5975 12.0625 15.875 C14.32619992 13.14409631 14.32619992 13.14409631 13.8125 9.875 C13.25514823 7.9028322 12.64808077 5.9442423 12 4 C8.98509443 2.99503148 6.95818308 2.89664697 3.8125 2.9375 C2.91144531 2.94652344 2.01039063 2.95554688 1.08203125 2.96484375 C0.05142578 2.98224609 0.05142578 2.98224609 -1 3 C-0.67 2.01 -0.34 1.02 0 0 Z " fill="#F3CC6E" transform="translate(445,150)"/>
<path d="M0 0 C2.97287629 4.45931443 4.12506755 7.6578289 4 13 C1.87561661 13.08078641 -0.2496323 13.13909141 -2.375 13.1875 C-4.15003906 13.23970703 -4.15003906 13.23970703 -5.9609375 13.29296875 C-7.46527344 13.14794922 -7.46527344 13.14794922 -9 13 C-11 10 -11 10 -11 6 C-10.34 6 -9.68 6 -9 6 C-8.67 7.32 -8.34 8.64 -8 10 C-4.7 10.33 -1.4 10.66 2 11 C1.484375 10.113125 0.96875 9.22625 0.4375 8.3125 C-1.0868937 4.79976669 -1.14947895 3.55293493 0 0 Z " fill="#EB9F6C" transform="translate(214,170)"/>
<path d="M0 0 C1.65 0.33 3.3 0.66 5 1 C5 3.31 5 5.62 5 8 C4.34 7.34 3.68 6.68 3 6 C1.68 9.3 0.36 12.6 -1 16 C-1.33 16 -1.66 16 -2 16 C-3.01924246 9.78630501 -3.62926746 5.51648654 0 0 Z " fill="#EE9B59" transform="translate(187,140)"/>
<path d="M0 0 C2.125 0.375 2.125 0.375 4 1 C3.67 1.66 3.34 2.32 3 3 C3.89363605 5.60931266 3.89363605 5.60931266 5 8 C1.7 8 -1.6 8 -5 8 C-5 6.02 -5 4.04 -5 2 C-4.01 2 -3.02 2 -2 2 C-1.34 1.34 -0.68 0.68 0 0 Z " fill="#F5812F" transform="translate(211,173)"/>
<path d="M0 0 C0.66 0 1.32 0 2 0 C2 2 2 2 0.6875 3.375 C0.130625 3.91125 -0.42625 4.4475 -1 5 C-4.38163636 8.55114194 -4.50240947 11.63329148 -4.75 16.4375 C-4.82734375 17.73558594 -4.9046875 19.03367188 -4.984375 20.37109375 C-4.99769287 23.46416896 -4.7581416 26.01912508 -4 29 C-6.14801929 27.26305718 -6.93527453 26.27280265 -7.58203125 23.546875 C-8.19890266 16.0607745 -7.73430731 10.6684059 -4 4 C-3.34 4 -2.68 4 -2 4 C-1.34 2.68 -0.68 1.36 0 0 Z " fill="#F0C269" transform="translate(376,143)"/>
<path d="M0 0 C6.6 0 13.2 0 20 0 C12.91086501 3.5445675 8.44733408 2.91825272 1 1 C1 6.28 1 11.56 1 17 C-0.98 16.67 -2.96 16.34 -5 16 C-5 15.67 -5 15.34 -5 15 C-3.35 15 -1.7 15 0 15 C0 10.05 0 5.1 0 0 Z " fill="#EDB171" transform="translate(270,181)"/>
<path d="M0 0 C6.6 0 13.2 0 20 0 C22 5 22 5 21 8 C20.34 6.02 19.68 4.04 19 2 C12.4 2 5.8 2 -1 2 C-0.67 1.34 -0.34 0.68 0 0 Z " fill="#EFA674" transform="translate(181,168)"/>
<path d="M0 0 C4.2712227 1.4237409 5.82372803 4.16976133 8 8 C9.68263922 14.08338796 9.52664286 20.89342858 8 27 C7.67 27 7.34 27 7 27 C6.96261719 25.90300781 6.92523438 24.80601562 6.88671875 23.67578125 C6.82103347 22.22132143 6.75458701 20.76689584 6.6875 19.3125 C6.66494141 18.59126953 6.64238281 17.87003906 6.61914062 17.12695312 C6.3946663 12.6578733 5.830481 9.65516435 3 6 C2.34 5.67 1.68 5.34 1 5 C0.375 2.4375 0.375 2.4375 0 0 Z " fill="#E8A559" transform="translate(294,143)"/>
<path d="M0 0 C4.02106649 0.13980455 8.0417861 0.28792319 12.0625 0.4375 C13.19623047 0.47681641 14.32996094 0.51613281 15.49804688 0.55664062 C21.06738395 0.76772337 26.50510526 1.05095432 32 2 C32 2.33 32 2.66 32 3 C30.91460937 2.98839844 29.82921875 2.97679687 28.7109375 2.96484375 C27.26562673 2.95545862 25.82031409 2.94635919 24.375 2.9375 C23.66214844 2.92912109 22.94929688 2.92074219 22.21484375 2.91210938 C18.95870834 2.89717297 15.99897808 3.00017589 12.77734375 3.5546875 C9.91038176 4.01436917 7.9937726 3.8520177 5.1875 3.1875 C4.41792969 3.01605469 3.64835937 2.84460938 2.85546875 2.66796875 C1 2 1 2 0 0 Z " fill="#F2C377" transform="translate(380,180)"/>
<path d="M0 0 C0 4.29 0 8.58 0 13 C3.96 13 7.92 13 12 13 C12 17.29 12 21.58 12 26 C11.67 26 11.34 26 11 26 C11 22.04 11 18.08 11 14 C7.04 14 3.08 14 -1 14 C-1.33 10.37 -1.66 6.74 -2 3 C-4.64 3.33 -7.28 3.66 -10 4 C-9.67 3.34 -9.34 2.68 -9 2 C-2.88888889 0 -2.88888889 0 0 0 Z " fill="#F4DB7C" transform="translate(555,125)"/>
<path d="M0 0 C0.33 0.66 0.66 1.32 1 2 C0.34 2 -0.32 2 -1 2 C-1 3.32 -1 4.64 -1 6 C-1.66 6 -2.32 6 -3 6 C-3 7.32 -3 8.64 -3 10 C-3.66 10 -4.32 10 -5 10 C-4.67 15.61 -4.34 21.22 -4 27 C-4.66 26.67 -5.32 26.34 -6 26 C-7.51617754 17.56320564 -7.47005618 10.73427434 -3.5 3.125 C-2 1 -2 1 0 0 Z " fill="#F4CB60" transform="translate(490,144)"/>
<path d="M0 0 C5.72727408 5.72727408 7.54187784 16.26920138 9 24 C4.81825313 20.82764031 3.96304859 17.25402533 2.66015625 12.3984375 C2.02624154 9.89137873 2.02624154 9.89137873 0.8125 7.1875 C-0.12125922 4.67353287 -0.15203075 2.66053815 0 0 Z " fill="#E79C5F" transform="translate(202,139)"/>
<path d="M0 0 C2.12011219 1.43107573 3.84013637 2.75099243 5.5 4.6875 C2.55895956 4.26735137 0.6736222 3.80481229 -1.8125 2.125 C-5.40708255 0.20231631 -8.55438273 -0.0087854 -12.5 0.6875 C-14.69117043 1.62657304 -16.69705691 2.68045315 -18.73828125 3.91015625 C-20.5 4.6875 -20.5 4.6875 -23.5 3.6875 C-16.57179138 -1.95770703 -8.38485816 -3.14432181 0 0 Z " fill="#F3CF6D" transform="translate(514.5,139.3125)"/>
<path d="M0 0 C4.29833399 4.29833399 4.15709996 7.18313206 4.1875 13.0625 C4.20167969 14.31160156 4.21585937 15.56070313 4.23046875 16.84765625 C4 20 4 20 2 22 C2 18.37 2 14.74 2 11 C1.34 11 0.68 11 0 11 C0 7.37 0 3.74 0 0 Z " fill="#F5C153" transform="translate(468,148)"/>
<path d="M0 0 C1.87365234 -0.02126953 1.87365234 -0.02126953 3.78515625 -0.04296875 C6.9375 0.1875 6.9375 0.1875 8.9375 2.1875 C8.5625 4.3125 8.5625 4.3125 7.9375 6.1875 C7.6075 5.1975 7.2775 4.2075 6.9375 3.1875 C4.17702457 2.26734152 2.30387731 1.99482755 -0.5625 1.9375 C-1.3359375 1.91171875 -2.109375 1.8859375 -2.90625 1.859375 C-5.59374945 2.26834231 -6.39118394 3.09204331 -8.0625 5.1875 C-9.23824711 7.28739652 -9.23824711 7.28739652 -10.0625 9.1875 C-10.0625 6.5475 -10.0625 3.9075 -10.0625 1.1875 C-6.55538381 0.01846127 -3.69467614 0.01910381 0 0 Z " fill="#F5C166" transform="translate(391.0625,150.8125)"/>
<path d="M0 0 C5.73842251 -0.20413361 10.60539047 -0.27141454 16 2 C16 2.66 16 3.32 16 4 C16.99 4 17.98 4 19 4 C19 4.66 19 5.32 19 6 C20.32 6.66 21.64 7.32 23 8 C22.67 8.66 22.34 9.32 22 10 C20.66144944 9.21718695 19.32926356 8.42348123 18 7.625 C17.2575 7.18414062 16.515 6.74328125 15.75 6.2890625 C15.1725 5.86367187 14.595 5.43828125 14 5 C14 4.34 14 3.68 14 3 C9.37269289 1.9551242 4.71146122 1.48243721 0 1 C0 0.67 0 0.34 0 0 Z " fill="#F6CA71" transform="translate(445,138)"/>
<path d="M0 0 C0.66 0 1.32 0 2 0 C1.80470703 0.99580078 1.80470703 0.99580078 1.60546875 2.01171875 C0.63042714 7.83335522 0.63042714 7.83335522 3 13.0625 C6.43300422 15.27964856 8.95137847 15.76184579 13 16 C13 16.33 13 16.66 13 17 C9.37 17 5.74 17 2 17 C2 16.01 2 15.02 2 14 C1.34 14 0.68 14 0 14 C-1.24377393 11.51245214 -1.13306235 9.77344699 -1.125 7 C-1.12757813 6.113125 -1.13015625 5.22625 -1.1328125 4.3125 C-1 2 -1 2 0 0 Z " fill="#F3CD60" transform="translate(496,154)"/>
<path d="M0 0 C2.13262124 3.19893186 2.59021548 5.22998243 3 9 C2 10 2 10 -0.28515625 10.09765625 C-1.65994141 10.08025391 -1.65994141 10.08025391 -3.0625 10.0625 C-3.98160156 10.05347656 -4.90070313 10.04445312 -5.84765625 10.03515625 C-6.55792969 10.02355469 -7.26820313 10.01195312 -8 10 C-8.33 9.34 -8.66 8.68 -9 8 C-5.7 8 -2.4 8 1 8 C0.34 6.68 -0.32 5.36 -1 4 C-0.625 1.75 -0.625 1.75 0 0 Z " fill="#E59155" transform="translate(194,149)"/>
<path d="M0 0 C0.66 0.33 1.32 0.66 2 1 C1.67 8.92 1.34 16.84 1 25 C0.67 25 0.34 25 0 25 C-0.33 17.74 -0.66 10.48 -1 3 C-2.65 3 -4.3 3 -6 3 C-4 2 -2 1 0 0 Z " fill="#DF9A5A" transform="translate(241,119)"/>
<path d="M0 0 C0.226875 0.598125 0.45375 1.19625 0.6875 1.8125 C2.42429529 4.70715882 3.9183036 5.63035715 7 7 C10.58357241 7.25015873 10.58357241 7.25015873 14 7 C14.99 7 15.98 7 17 7 C16.67 7.66 16.34 8.32 16 9 C13.87506859 9.02693575 11.75004088 9.04636628 9.625 9.0625 C8.44164062 9.07410156 7.25828125 9.08570313 6.0390625 9.09765625 C3 9 3 9 1 8 C0.40644386 5.35139573 0.25790731 2.70802678 0 0 Z " fill="#EFB855" transform="translate(381,162)"/>
<path d="M0 0 C0.66 0 1.32 0 2 0 C1.90460938 0.67546875 1.80921875 1.3509375 1.7109375 2.046875 C1.60007812 2.93890625 1.48921875 3.8309375 1.375 4.75 C1.25898438 5.63171875 1.14296875 6.5134375 1.0234375 7.421875 C0.99792183 10.22859878 1.55156156 11.63384866 3 14 C2.01 14 1.02 14 0 14 C0 13.01 0 12.02 0 11 C-0.66 11 -1.32 11 -2 11 C-2.05399736 9.54207116 -2.09279177 8.08357288 -2.125 6.625 C-2.15980469 5.40683594 -2.15980469 5.40683594 -2.1953125 4.1640625 C-2 2 -2 2 0 0 Z " fill="#EDA75D" transform="translate(271,154)"/>
<path d="M0 0 C6.41199226 0.62862669 6.41199226 0.62862669 9.375 2.5 C13.10060031 4.62891446 16.77304393 4.73293742 21 5 C21 5.33 21 5.66 21 6 C13.92617521 6.35109057 8.41753731 6.15042741 2 3 C1.34 2.01 0.68 1.02 0 0 Z " fill="#F3D26A" transform="translate(490,177)"/>
<path d="M0 0 C0.99 0 1.98 0 3 0 C3.05447047 1.41623216 3.09300508 2.83308191 3.125 4.25 C3.14820313 5.03890625 3.17140625 5.8278125 3.1953125 6.640625 C2.9828378 9.20731941 2.28654105 10.7916067 1 13 C-0.32 12.67 -1.64 12.34 -3 12 C-2.319375 11.319375 -1.63875 10.63875 -0.9375 9.9375 C1.3889842 7.05366249 1.3889842 7.05366249 0.75 3.1875 C0.5025 2.135625 0.255 1.08375 0 0 Z " fill="#F0C254" transform="translate(458,156)"/>
<path d="M0 0 C0.33 0 0.66 0 1 0 C1.125 7.75 1.125 7.75 0 10 C-0.66 10 -1.32 10 -2 10 C-2.12375 10.804375 -2.2475 11.60875 -2.375 12.4375 C-2.58125 13.283125 -2.7875 14.12875 -3 15 C-3.99 15.495 -3.99 15.495 -5 16 C-3.41078475 10.63904723 -1.81027062 5.29156027 0 0 Z " fill="#EAA368" transform="translate(180,131)"/>
<path d="M0 0 C6.52307692 -0.36923077 6.52307692 -0.36923077 8.9375 1.5 C9.288125 1.995 9.63875 2.49 10 3 C9.01 3.495 9.01 3.495 8 4 C8 3.34 8 2.68 8 2 C5.03 2.66 2.06 3.32 -1 4 C-0.67 2.68 -0.34 1.36 0 0 Z " fill="#EFB058" transform="translate(331,150)"/>
<path d="M0 0 C3.34998521 1.11666174 3.79340222 1.74694925 5.6875 4.5625 C6.12449219 5.20316406 6.56148438 5.84382812 7.01171875 6.50390625 C7.33785156 6.99761719 7.66398437 7.49132812 8 8 C7.67 8.66 7.34 9.32 7 10 C1.21538462 5.69230769 1.21538462 5.69230769 0.125 2.1875 C0.08375 1.465625 0.0425 0.74375 0 0 Z " fill="#F0B475" transform="translate(294,143)"/>
<path d="M0 0 C0.99 0 1.98 0 3 0 C5 2 5 2 5 6 C5.66 6 6.32 6 7 6 C6.67 6.99 6.34 7.98 6 9 C1.125 3.375 1.125 3.375 0 0 Z " fill="#F9D564" transform="translate(544,169)"/>
<path d="M0 0 C0.99 0.33 1.98 0.66 3 1 C3.94921875 3.06640625 3.94921875 3.06640625 4.6875 5.5625 C4.93886719 6.38878906 5.19023437 7.21507812 5.44921875 8.06640625 C5.63097656 8.70449219 5.81273437 9.34257812 6 10 C5.34 10 4.68 10 4 10 C3.32845067 8.71086513 2.66291141 7.41859796 2 6.125 C1.62875 5.40570313 1.2575 4.68640625 0.875 3.9453125 C0 2 0 2 0 0 Z " fill="#F3CB6D" transform="translate(428,166)"/>
<path d="M0 0 C1.98 0.66 3.96 1.32 6 2 C6 5.3 6 8.6 6 12 C5.67 12 5.34 12 5 12 C4.34 8.7 3.68 5.4 3 2 C2.01 1.67 1.02 1.34 0 1 C0 0.67 0 0.34 0 0 Z " fill="#F3AC62" transform="translate(285,152)"/>
<path d="M0 0 C2.70269923 2.70269923 3.70570258 5.4252738 5 9 C4.6875 11.4375 4.6875 11.4375 4 13 C4 12.01 4 11.02 4 10 C3.01 9.67 2.02 9.34 1 9 C0.67 6.03 0.34 3.06 0 0 Z " fill="#EBA571" transform="translate(202,139)"/>
<path d="M0 0 C0.66 0 1.32 0 2 0 C1.34 1.98 0.68 3.96 0 6 C-0.66 6 -1.32 6 -2 6 C-2 6.66 -2 7.32 -2 8 C-2.66 7.67 -3.32 7.34 -4 7 C-3.34 5.35 -2.68 3.7 -2 2 C-1.34 2 -0.68 2 0 2 C0 1.34 0 0.68 0 0 Z " fill="#F4CA72" transform="translate(468,170)"/>
<path d="M0 0 C0.33 0 0.66 0 1 0 C1 1.98 1 3.96 1 6 C1.99 6.33 2.98 6.66 4 7 C2.02 7 0.04 7 -2 7 C-1.125 2.25 -1.125 2.25 0 0 Z " fill="#E29254" transform="translate(164,175)"/>
<path d="M0 0 C-1.29299694 2.88437779 -2.65941363 4.87219421 -5 7 C-5 5.02 -5 3.04 -5 1 C-2 0 -2 0 0 0 Z " fill="#F3D36A" transform="translate(526,170)"/>
<path d="M0 0 C3.63 0.66 7.26 1.32 11 2 C11 2.33 11 2.66 11 3 C7.37 3 3.74 3 0 3 C0 2.01 0 1.02 0 0 Z " fill="#F5C24D" transform="translate(498,168)"/>
</svg>
